<?xml version="1.0" encoding="UTF-8" standalone="no"?>
<!DOCTYPE svg PUBLIC "-//W3C//DTD SVG 1.1//EN"
"http://www.w3.org/Graphics/SVG/1.1/DTD/svg11.dtd">
<!-- Generated by graphviz version 2.28.0 (20130530.0552)
-->
<!-- Title: workflow://Anonymous/PostWorkflow#summary Pages: 1 -->
<svg width="1400px" height="770px"
viewBox="0.00 0.00 586.00 144.00" xmlns="http://www.w3.org/2000/svg" xmlns:xlink="http://www.w3.org/1999/xlink">
<g id="graph1" class="graph" transform="scale(1 1) rotate(0) translate(4 140)">
<title>workflow://Anonymous/PostWorkflow#summary</title>
<polygon fill="white" stroke="white" points="-4,5 -4,-140 583,-140 583,5 -4,5"/>
<!-- file://Anonymous/align.b4 -->
<a xlink:href="../align.b4">
<g id="node1" class="node"><title>file://Anonymous/align.b4</title>
<polygon fill="none" stroke="black" stroke-dasharray="1,5" points="60.6208,-136 -0.620825,-136 -0.620825,-132 -4.62083,-132 -4.62083,-128 -0.620825,-128 -0.620825,-108 -4.62083,-108 -4.62083,-104 -0.620825,-104 -0.620825,-100 60.6208,-100 60.6208,-136"/>
<polyline fill="none" stroke="black" stroke-dasharray="1,5" points="-0.620825,-132 3.37917,-132 3.37917,-128 -0.620825,-128 "/>
<polyline fill="none" stroke="black" stroke-dasharray="1,5" points="-0.620825,-108 3.37917,-108 3.37917,-104 -0.620825,-104 "/>
<text text-anchor="middle" x="30" y="-113.8" font-family="Times New Roman" font-size="14.00">align.b4</text>
</g>
</a>
<!-- task://Anonymous/P_PreAssembler/takeOutTheTrash -->
<g id="node6" class="node"><title>task://Anonymous/P_PreAssembler/takeOutTheTrash</title>
<polygon fill="#aaaaaa" stroke="#000000" points="444.416,-18.878 444.416,-45.122 349.861,-63.6793 216.139,-63.6793 121.584,-45.122 121.584,-18.878 216.139,-0.320669 349.861,-0.320669 444.416,-18.878"/>
<text text-anchor="middle" x="283" y="-36.2" font-family="Times New Roman" font-size="14.00">P_PreAssembler/takeOutTheTrash</text>
<text text-anchor="middle" x="283" y="-19.4" font-family="Times New Roman" font-size="14.00">0:01:12</text>
</g>
<!-- file://Anonymous/align.b4&#45;&gt;task://Anonymous/P_PreAssembler/takeOutTheTrash -->
<g id="edge2" class="edge"><title>file://Anonymous/align.b4&#45;&gt;task://Anonymous/P_PreAssembler/takeOutTheTrash</title>
<path fill="none" stroke="black" d="M60.5295,-103.322C63.377,-102.158 66.2321,-101.033 69,-100 105.506,-86.3739 146.179,-73.161 182.179,-62.1211"/>
<polygon fill="black" stroke="black" points="183.657,-65.3298 192.202,-59.0664 181.616,-58.6339 183.657,-65.3298"/>
</g>
<!-- file://Anonymous/consensus.ctg -->
<a xlink:href="../consensus.ctg">
<g id="node2" class="node"><title>file://Anonymous/consensus.ctg</title>
<polygon fill="#eeeeee" stroke="black" points="171.526,-136 78.4745,-136 78.4745,-132 74.4745,-132 74.4745,-128 78.4745,-128 78.4745,-108 74.4745,-108 74.4745,-104 78.4745,-104 78.4745,-100 171.526,-100 171.526,-136"/>
<polyline fill="none" stroke="black" points="78.4745,-132 82.4745,-132 82.4745,-128 78.4745,-128 "/>
<polyline fill="none" stroke="black" points="78.4745,-108 82.4745,-108 82.4745,-104 78.4745,-104 "/>
<text text-anchor="middle" x="125" y="-113.8" font-family="Times New Roman" font-size="14.00">consensus.ctg</text>
</g>
</a>
<!-- file://Anonymous/consensus.ctg&#45;&gt;task://Anonymous/P_PreAssembler/takeOutTheTrash -->
<g id="edge10" class="edge"><title>file://Anonymous/consensus.ctg&#45;&gt;task://Anonymous/P_PreAssembler/takeOutTheTrash</title>
<path fill="none" stroke="black" d="M157.355,-99.7986C174.342,-90.7674 195.813,-79.3528 216.177,-68.5262"/>
<polygon fill="black" stroke="black" points="217.94,-71.5528 225.127,-63.768 214.654,-65.372 217.94,-71.5528"/>
</g>
<!-- file://Anonymous/corrected.bnk#WithConsensus -->
<a xlink:href="../corrected.bnk#WithConsensus">
<g id="node3" class="node"><title>file://Anonymous/corrected.bnk#WithConsensus</title>
<polygon fill="#eeeeee" stroke="black" points="376.588,-136 189.412,-136 189.412,-132 185.412,-132 185.412,-128 189.412,-128 189.412,-108 185.412,-108 185.412,-104 189.412,-104 189.412,-100 376.588,-100 376.588,-136"/>
<polyline fill="none" stroke="black" points="189.412,-132 193.412,-132 193.412,-128 189.412,-128 "/>
<polyline fill="none" stroke="black" points="189.412,-108 193.412,-108 193.412,-104 189.412,-104 "/>
<text text-anchor="middle" x="283" y="-113.8" font-family="Times New Roman" font-size="14.00">corrected.bnk#WithConsensus</text>
</g>
</a>
<!-- file://Anonymous/corrected.bnk#WithConsensus&#45;&gt;task://Anonymous/P_PreAssembler/takeOutTheTrash -->
<g id="edge4" class="edge"><title>file://Anonymous/corrected.bnk#WithConsensus&#45;&gt;task://Anonymous/P_PreAssembler/takeOutTheTrash</title>
<path fill="none" stroke="black" d="M283,-99.5951C283,-92.1234 283,-83.0481 283,-74.0324"/>
<polygon fill="black" stroke="black" points="286.5,-73.9672 283,-63.9672 279.5,-73.9672 286.5,-73.9672"/>
</g>
<!-- file://Anonymous/shortreads.afg -->
<a xlink:href="../shortreads.afg">
<g id="node4" class="node"><title>file://Anonymous/shortreads.afg</title>
<polygon fill="#eeeeee" stroke="black" points="489.179,-136 394.821,-136 394.821,-132 390.821,-132 390.821,-128 394.821,-128 394.821,-108 390.821,-108 390.821,-104 394.821,-104 394.821,-100 489.179,-100 489.179,-136"/>
<polyline fill="none" stroke="black" points="394.821,-132 398.821,-132 398.821,-128 394.821,-128 "/>
<polyline fill="none" stroke="black" points="394.821,-108 398.821,-108 398.821,-104 394.821,-104 "/>
<text text-anchor="middle" x="442" y="-113.8" font-family="Times New Roman" font-size="14.00">shortreads.afg</text>
</g>
</a>
<!-- file://Anonymous/shortreads.afg&#45;&gt;task://Anonymous/P_PreAssembler/takeOutTheTrash -->
<g id="edge8" class="edge"><title>file://Anonymous/shortreads.afg&#45;&gt;task://Anonymous/P_PreAssembler/takeOutTheTrash</title>
<path fill="none" stroke="black" d="M409.44,-99.7986C392.345,-90.7674 370.739,-79.3528 350.246,-68.5262"/>
<polygon fill="black" stroke="black" points="351.716,-65.3446 341.239,-63.768 348.447,-71.534 351.716,-65.3446"/>
</g>
<!-- file://Anonymous/layout.ids -->
<a xlink:href="../layout.ids">
<g id="node5" class="node"><title>file://Anonymous/layout.ids</title>
<polygon fill="#eeeeee" stroke="black" points="578.124,-136 507.876,-136 507.876,-132 503.876,-132 503.876,-128 507.876,-128 507.876,-108 503.876,-108 503.876,-104 507.876,-104 507.876,-100 578.124,-100 578.124,-136"/>
<polyline fill="none" stroke="black" points="507.876,-132 511.876,-132 511.876,-128 507.876,-128 "/>
<polyline fill="none" stroke="black" points="507.876,-108 511.876,-108 511.876,-104 507.876,-104 "/>
<text text-anchor="middle" x="543" y="-113.8" font-family="Times New Roman" font-size="14.00">layout.ids</text>
</g>
</a>
<!-- file://Anonymous/layout.ids&#45;&gt;task://Anonymous/P_PreAssembler/takeOutTheTrash -->
<g id="edge6" class="edge"><title>file://Anonymous/layout.ids&#45;&gt;task://Anonymous/P_PreAssembler/takeOutTheTrash</title>
<path fill="none" stroke="black" d="M507.698,-103.438C504.429,-102.251 501.159,-101.088 498,-100 460.248,-86.9997 418.402,-73.7093 381.735,-62.4291"/>
<polygon fill="black" stroke="black" points="382.623,-59.0405 372.036,-59.4549 380.571,-65.7329 382.623,-59.0405"/>
</g>
</g>
</svg>
