<?xml version="1.0" encoding="UTF-8" standalone="no"?>
<!DOCTYPE svg PUBLIC "-//W3C//DTD SVG 1.1//EN"
"http://www.w3.org/Graphics/SVG/1.1/DTD/svg11.dtd">
<!-- Generated by graphviz version 2.28.0 (20130530.0552)
-->
<!-- Title: workflow://Anonymous/PostWorkflow Pages: 1 -->
<svg width="2800px" height="1540px"
viewBox="0.00 0.00 586.00 144.00" xmlns="http://www.w3.org/2000/svg" xmlns:xlink="http://www.w3.org/1999/xlink">
<g id="graph1" class="graph" transform="scale(1 1) rotate(0) translate(4 140)">
<title>workflow://Anonymous/PostWorkflow</title>
<polygon fill="white" stroke="white" points="-4,5 -4,-140 583,-140 583,5 -4,5"/>
<!-- file://Anonymous/align.b4 -->
<a xlink:href="../align.b4">
<g id="node1" class="node"><title>file://Anonymous/align.b4</title>
<polygon fill="none" stroke="black" stroke-dasharray="1,5" points="60.6208,-136 -0.620825,-136 -0.620825,-132 -4.62083,-132 -4.62083,-128 -0.620825,-128 -0.620825,-108 -4.62083,-108 -4.62083,-104 -0.620825,-104 -0.620825,-100 60.6208,-100 60.6208,-136"/>
<polyline fill="none" stroke="black" stroke-dasharray="1,5" points="-0.620825,-132 3.37917,-132 3.37917,-128 -0.620825,-128 "/>
<polyline fill="none" stroke="black" stroke-dasharray="1,5" points="-0.620825,-108 3.37917,-108 3.37917,-104 -0.620825,-104 "/>
<text text-anchor="middle" x="30" y="-113.8" font-family="Times New Roman" font-size="14.00">align.b4</text>
</g>
</a>
<!-- task://Anonymous/P_PreAssembler/takeOutTheTrash -->
<a xlink:href="../log/P_PreAssembler/takeOutTheTrash.log">
<g id="node4" class="node"><title>task://Anonymous/P_PreAssembler/takeOutTheTrash</title>
<polygon fill="#aaaaaa" stroke="#000000" points="399.416,-18.878 399.416,-45.122 304.861,-63.6793 171.139,-63.6793 76.5843,-45.122 76.5843,-18.878 171.139,-0.320669 304.861,-0.320669 399.416,-18.878"/>
<text text-anchor="middle" x="238" y="-36.2" font-family="Times New Roman" font-size="14.00">P_PreAssembler/takeOutTheTrash</text>
<text text-anchor="middle" x="238" y="-19.4" font-family="Times New Roman" font-size="14.00">0:01:12</text>
</g>
</a>
<!-- file://Anonymous/align.b4&#45;&gt;task://Anonymous/P_PreAssembler/takeOutTheTrash -->
<g id="edge2" class="edge"><title>file://Anonymous/align.b4&#45;&gt;task://Anonymous/P_PreAssembler/takeOutTheTrash</title>
<path fill="none" stroke="black" d="M60.5453,-103.935C63.7338,-102.596 66.9301,-101.264 70,-100 97.271,-88.7686 127.146,-76.7596 154.043,-66.0555"/>
<polygon fill="black" stroke="black" points="155.423,-69.2733 163.423,-62.3272 152.837,-62.7683 155.423,-69.2733"/>
</g>
<!-- file://Anonymous/shortreads.afg -->
<a xlink:href="../shortreads.afg">
<g id="node2" class="node"><title>file://Anonymous/shortreads.afg</title>
<polygon fill="#eeeeee" stroke="black" points="173.179,-136 78.8207,-136 78.8207,-132 74.8207,-132 74.8207,-128 78.8207,-128 78.8207,-108 74.8207,-108 74.8207,-104 78.8207,-104 78.8207,-100 173.179,-100 173.179,-136"/>
<polyline fill="none" stroke="black" points="78.8207,-132 82.8207,-132 82.8207,-128 78.8207,-128 "/>
<polyline fill="none" stroke="black" points="78.8207,-108 82.8207,-108 82.8207,-104 78.8207,-104 "/>
<text text-anchor="middle" x="126" y="-113.8" font-family="Times New Roman" font-size="14.00">shortreads.afg</text>
</g>
</a>
<!-- file://Anonymous/shortreads.afg&#45;&gt;task://Anonymous/P_PreAssembler/takeOutTheTrash -->
<g id="edge4" class="edge"><title>file://Anonymous/shortreads.afg&#45;&gt;task://Anonymous/P_PreAssembler/takeOutTheTrash</title>
<path fill="none" stroke="black" d="M148.935,-99.7986C160.491,-91.1319 174.973,-80.2703 188.88,-69.8397"/>
<polygon fill="black" stroke="black" points="191.076,-72.5681 196.976,-63.768 186.876,-66.9681 191.076,-72.5681"/>
</g>
<!-- file://Anonymous/consensus.ctg -->
<a xlink:href="../consensus.ctg">
<g id="node3" class="node"><title>file://Anonymous/consensus.ctg</title>
<polygon fill="#eeeeee" stroke="black" points="284.526,-136 191.474,-136 191.474,-132 187.474,-132 187.474,-128 191.474,-128 191.474,-108 187.474,-108 187.474,-104 191.474,-104 191.474,-100 284.526,-100 284.526,-136"/>
<polyline fill="none" stroke="black" points="191.474,-132 195.474,-132 195.474,-128 191.474,-128 "/>
<polyline fill="none" stroke="black" points="191.474,-108 195.474,-108 195.474,-104 191.474,-104 "/>
<text text-anchor="middle" x="238" y="-113.8" font-family="Times New Roman" font-size="14.00">consensus.ctg</text>
</g>
</a>
<!-- file://Anonymous/consensus.ctg&#45;&gt;task://Anonymous/P_PreAssembler/takeOutTheTrash -->
<g id="edge6" class="edge"><title>file://Anonymous/consensus.ctg&#45;&gt;task://Anonymous/P_PreAssembler/takeOutTheTrash</title>
<path fill="none" stroke="black" d="M238,-99.5951C238,-92.1234 238,-83.0481 238,-74.0324"/>
<polygon fill="black" stroke="black" points="241.5,-73.9672 238,-63.9672 234.5,-73.9672 241.5,-73.9672"/>
</g>
<!-- file://Anonymous/layout.ids -->
<a xlink:href="../layout.ids">
<g id="node5" class="node"><title>file://Anonymous/layout.ids</title>
<polygon fill="#eeeeee" stroke="black" points="373.124,-136 302.876,-136 302.876,-132 298.876,-132 298.876,-128 302.876,-128 302.876,-108 298.876,-108 298.876,-104 302.876,-104 302.876,-100 373.124,-100 373.124,-136"/>
<polyline fill="none" stroke="black" points="302.876,-132 306.876,-132 306.876,-128 302.876,-128 "/>
<polyline fill="none" stroke="black" points="302.876,-108 306.876,-108 306.876,-104 302.876,-104 "/>
<text text-anchor="middle" x="338" y="-113.8" font-family="Times New Roman" font-size="14.00">layout.ids</text>
</g>
</a>
<!-- file://Anonymous/layout.ids&#45;&gt;task://Anonymous/P_PreAssembler/takeOutTheTrash -->
<g id="edge8" class="edge"><title>file://Anonymous/layout.ids&#45;&gt;task://Anonymous/P_PreAssembler/takeOutTheTrash</title>
<path fill="none" stroke="black" d="M317.28,-99.5951C307.237,-91.1593 294.761,-80.6794 282.701,-70.5489"/>
<polygon fill="black" stroke="black" points="284.774,-67.7192 274.866,-63.9672 280.272,-73.0791 284.774,-67.7192"/>
</g>
<!-- file://Anonymous/corrected.bnk#WithConsensus -->
<a xlink:href="../corrected.bnk#WithConsensus">
<g id="node6" class="node"><title>file://Anonymous/corrected.bnk#WithConsensus</title>
<polygon fill="#eeeeee" stroke="black" points="578.588,-136 391.412,-136 391.412,-132 387.412,-132 387.412,-128 391.412,-128 391.412,-108 387.412,-108 387.412,-104 391.412,-104 391.412,-100 578.588,-100 578.588,-136"/>
<polyline fill="none" stroke="black" points="391.412,-132 395.412,-132 395.412,-128 391.412,-128 "/>
<polyline fill="none" stroke="black" points="391.412,-108 395.412,-108 395.412,-104 391.412,-104 "/>
<text text-anchor="middle" x="485" y="-113.8" font-family="Times New Roman" font-size="14.00">corrected.bnk#WithConsensus</text>
</g>
</a>
<!-- file://Anonymous/corrected.bnk#WithConsensus&#45;&gt;task://Anonymous/P_PreAssembler/takeOutTheTrash -->
<g id="edge10" class="edge"><title>file://Anonymous/corrected.bnk#WithConsensus&#45;&gt;task://Anonymous/P_PreAssembler/takeOutTheTrash</title>
<path fill="none" stroke="black" d="M434.718,-99.9001C404.548,-89.6399 365.254,-76.2768 329.725,-64.194"/>
<polygon fill="black" stroke="black" points="330.409,-60.7297 319.815,-60.8236 328.155,-67.357 330.409,-60.7297"/>
</g>
</g>
</svg>
